<svg xmlns="http://www.w3.org/2000/svg" width="245" height="20" viewBox="0 0 245 20" fill="none">
  <g clip-path="url(#clip0_14519_42994)">
    <g clip-path="url(#clip1_14519_42994)">
      <path
        d="M75.0273 17.8828C75.209 17.9665 75.4105 18.0146 75.6221 18.0146H77.1055C77.1666 18.0146 77.1982 18.0608 77.1982 18.0947V19.3936C77.1982 19.4274 77.1666 19.4736 77.1055 19.4736H75.248C75.187 19.4736 75.1562 19.4274 75.1562 19.3936V18.4609C75.1562 18.2533 75.1087 18.0583 75.0273 17.8828ZM74.3389 2.79883C74.2577 2.9742 74.2119 3.16978 74.2119 3.37695V16.623C74.212 16.8301 74.2579 17.0251 74.3389 17.2002C74.1577 17.117 73.957 17.0694 73.7461 17.0693H72.793C72.732 17.0693 72.7012 17.0231 72.7012 16.9893V3.00586C72.704 2.97264 72.7348 2.93066 72.793 2.93066H73.7451C73.9566 2.93066 74.1575 2.88227 74.3389 2.79883ZM75.2471 0.526367H77.1055C77.1663 0.526575 77.1973 0.572635 77.1973 0.606445V1.90527C77.197 1.93904 77.1661 1.98417 77.1055 1.98438H75.6221C75.4106 1.98438 75.2088 2.03174 75.0273 2.11523C75.1082 1.94014 75.1553 1.74581 75.1553 1.53906V0.606445C75.1553 0.572645 75.1863 0.526604 75.2471 0.526367Z"
        fill="#121312" stroke="#121312" stroke-width="1.05263" />
      <path
        d="M158.555 17.8828C158.473 18.0583 158.427 18.2535 158.427 18.4609V19.3936C158.427 19.4274 158.395 19.4736 158.334 19.4736H156.477C156.416 19.4735 156.385 19.4274 156.385 19.3936V18.0947C156.385 18.0609 156.416 18.0147 156.477 18.0146H157.96C158.172 18.0146 158.373 17.9665 158.555 17.8828ZM159.242 2.7998C159.424 2.88315 159.625 2.93066 159.836 2.93066H160.789C160.85 2.93087 160.881 2.97698 160.881 3.01074V16.9932C160.879 17.0265 160.848 17.0693 160.789 17.0693H159.837C159.625 17.0693 159.423 17.1165 159.241 17.2002C159.322 17.0248 159.37 16.8302 159.37 16.623V3.37695C159.37 3.16978 159.323 2.975 159.242 2.7998ZM156.477 0.526367H158.334C158.395 0.526559 158.426 0.572687 158.426 0.606445V1.53906C158.426 1.74622 158.473 1.941 158.554 2.11621C158.372 2.03281 158.171 1.98535 157.96 1.98535H156.477C156.415 1.98535 156.384 1.9391 156.384 1.90527V0.606445C156.384 0.572616 156.415 0.526367 156.477 0.526367Z"
        fill="#121312" stroke="#121312" stroke-width="1.05263" />
      <path
        d="M30.1992 3.26318C31.2042 3.26322 32.0822 3.44404 32.8438 3.79346C33.5104 4.09957 34.0398 4.50716 34.4434 5.01318L34.6084 5.23584C34.9267 5.69893 35.133 6.20293 35.2324 6.75244L33.4902 6.73877C33.3351 6.14499 33.0088 5.64243 32.5205 5.24365V5.24268L32.2793 5.06494C31.6983 4.68064 30.994 4.5044 30.1982 4.50439C29.3778 4.50439 28.659 4.67824 28.0869 5.07373C27.4722 5.49879 27.1719 6.13025 27.1719 6.89111C27.1719 7.43138 27.3558 7.91021 27.7598 8.26025C28.1046 8.55904 28.5517 8.77516 29.0723 8.92627V8.92529C29.5729 9.07147 30.3043 9.22814 31.2529 9.39404L31.2988 9.40186H31.3125C32.2237 9.57248 32.9842 9.78031 33.6006 10.022L33.6396 10.0376C34.153 10.2423 34.5734 10.5394 34.9092 10.9302L35.0479 11.103C35.3782 11.5461 35.5684 12.1592 35.5684 12.9897C35.5683 13.7384 35.3605 14.3999 34.9453 14.9907C34.526 15.5873 33.9398 16.0642 33.168 16.4155C32.3987 16.7657 31.5159 16.9478 30.5107 16.9478C29.423 16.9477 28.481 16.7493 27.6738 16.3677C26.8606 15.9832 26.238 15.462 25.7891 14.8091C25.4419 14.3044 25.2219 13.7466 25.1289 13.1304L26.8682 13.1567C27.0177 13.8593 27.3807 14.4513 27.9502 14.9155C28.6493 15.4853 29.5403 15.7476 30.5742 15.7476C31.4403 15.7475 32.1987 15.5578 32.8096 15.1372C33.452 14.6949 33.787 14.0586 33.7871 13.2788C33.7871 12.7262 33.6007 12.2358 33.1943 11.8726C32.8414 11.558 32.3856 11.3339 31.8545 11.1812C31.3507 11.0363 30.6067 10.8742 29.6338 10.6948H29.6348L29.5312 10.6743L29.5215 10.6724C28.7437 10.5317 28.077 10.3502 27.5166 10.1313L27.2832 10.0356C26.7126 9.78894 26.2611 9.42992 25.916 8.95752C25.5979 8.52196 25.4131 7.9121 25.4131 7.07764C25.4131 6.35342 25.6083 5.71267 25.998 5.14209L25.999 5.14111C26.3898 4.56784 26.9429 4.11017 27.6787 3.77295C28.4133 3.4363 29.251 3.26318 30.1992 3.26318Z"
        fill="#121312" stroke="#121312" stroke-width="1.05263" />
      <path
        d="M42.7246 7.05273C44.1268 7.05273 44.956 7.36284 45.6533 7.92969C46.3152 8.46768 46.6748 9.26414 46.6748 10.4062V14.3848C46.6748 14.7023 46.7498 15.0556 47.0195 15.3086V15.3096C47.2623 15.5382 47.5711 15.6191 47.8721 15.6191H47.9502V16.8164H46.3779C46.0194 16.8164 45.7345 16.5288 45.7344 16.1807V15.8271C45.7342 14.9843 44.6556 14.7327 44.2344 15.3906L44.2334 15.3896C43.9536 15.8017 43.6604 16.1207 43.3223 16.3633H43.3213C42.9191 16.6521 42.5492 16.8327 42.1055 16.9033C41.6539 16.9756 41.1757 16.9526 40.6846 16.877C40.0663 16.7817 39.4882 16.5681 39.0156 16.2139C38.415 15.764 38.1153 15.1602 38.1152 14.3438C38.1152 13.3643 38.4587 12.6605 39.1221 12.1602C39.8039 11.6467 40.8601 11.3506 42.3691 11.3506H44.2998C44.7185 11.3503 45.0664 11.0119 45.0664 10.585V10.2617C45.0664 9.59877 44.8032 9.0205 44.3428 8.61426C43.8878 8.213 43.2723 8.00586 42.5996 8.00586C41.9178 8.00586 41.353 8.15365 40.8643 8.48047C40.5042 8.72161 40.2367 9.03653 40.0811 9.42188H38.5098C38.6922 8.7737 39.0646 8.25904 39.6416 7.86133H39.6426C40.3986 7.34005 41.3892 7.05273 42.7246 7.05273ZM42.3262 12.1299C41.6097 12.1299 40.9793 12.2691 40.499 12.6143H40.498C39.9937 12.9784 39.7451 13.5083 39.7451 14.1348C39.7451 14.6382 39.9234 15.0747 40.2715 15.4121L40.4307 15.5498C40.8689 15.8908 41.4206 16.0352 42.0332 16.0352C43.1146 16.035 44.1138 15.5351 44.6719 14.5508C44.9397 14.0777 45.0645 13.5372 45.0645 12.9473V12.8955C45.0645 12.471 44.7193 12.1299 44.2979 12.1299H42.3262Z"
        fill="#121312" stroke="#121312" stroke-width="1.05263" />
      <path
        d="M53.165 3.47375H55.6357V4.68372H53.6367C53.0839 4.68379 52.631 5.1301 52.6309 5.68665V6.72278C52.631 7.14579 52.9753 7.4872 53.3965 7.48743H55.6143V8.69641H53.3965C52.9778 8.69664 52.631 9.0354 52.6309 9.46106V16.9474H51.0557V9.46106C51.0555 9.03781 50.7114 8.69641 50.29 8.69641H49.0029V7.48743H50.29C50.7089 7.48743 51.0555 7.14847 51.0557 6.72278V5.57043C51.0557 4.41448 51.9983 3.47377 53.165 3.47375Z"
        fill="#121312" stroke="#121312" stroke-width="1.05263" />
      <path
        d="M61.7783 7.05261C62.7793 7.05264 63.6426 7.25245 64.3779 7.62683C65.0952 7.99211 65.6581 8.5087 66.0771 9.18054L66.1035 9.22351C66.5201 9.90923 66.7372 10.715 66.7373 11.6591C66.7373 11.7827 66.7344 11.9205 66.7285 12.0712H59.4277C58.9846 12.0713 58.6086 12.4533 58.6631 12.9227V12.9237C58.6724 13.0024 58.6839 13.0792 58.6953 13.1503V13.1532C58.7317 13.372 58.7851 13.5937 58.8604 13.8114C58.9304 14.0137 59.0188 14.2127 59.1289 14.4032C59.3747 14.8279 59.7018 15.1726 60.1064 15.4325L60.2842 15.538C60.7771 15.8099 61.337 15.9374 61.9473 15.9374C62.6769 15.9374 63.3276 15.7718 63.8701 15.411L63.8711 15.41C64.3016 15.1225 64.6206 14.7392 64.8213 14.2694H66.4434C66.3149 14.6409 66.1265 14.9907 65.874 15.3192H65.873C65.4926 15.8148 64.9878 16.2117 64.3457 16.5057C63.711 16.7962 62.9784 16.9471 62.1387 16.9471C61.0326 16.9471 60.0976 16.7387 59.3174 16.3387L59.3164 16.3378C58.5372 15.939 57.9473 15.3755 57.5332 14.6415C57.1176 13.9039 56.9023 13.0665 56.9023 12.0341C56.9024 10.9951 57.1131 10.1161 57.5156 9.37976C57.9199 8.64036 58.4838 8.07413 59.2148 7.67078C59.9485 7.26605 60.7858 7.05261 61.7783 7.05261ZM61.8828 8.0282C61.4246 8.02824 60.9889 8.10825 60.5811 8.27332L60.4082 8.34949C59.9466 8.56842 59.5647 8.88743 59.2715 9.30261C59.0443 9.62426 58.8865 9.98326 58.7959 10.3739L58.7949 10.3759C58.6826 10.8692 59.0688 11.3104 59.5469 11.3104H64.2832C64.7335 11.3101 65.0994 10.9199 65.0488 10.4647L65.0332 10.3729C64.8784 9.7014 64.5479 9.14414 64.0361 8.72937C63.4458 8.25087 62.7144 8.0282 61.8828 8.0282Z"
        fill="#121312" stroke="#121312" stroke-width="1.05263" />
      <text x="82" y="17" font-family="'DM Sans',sans-serif" font-size="17" font-weight="700" fill="#121312"
        letter-spacing="1.2">STATUS</text>
    </g>
    <path
      d="M18.4588 10.2271H16.3327C15.6977 10.2271 15.1831 10.7416 15.1831 11.3766V14.4625C15.1831 15.0974 14.6686 15.612 14.0336 15.612H5.5753C4.94031 15.612 4.42578 16.1265 4.42578 16.7615V18.8876C4.42578 19.5226 4.94031 20.0371 5.5753 20.0371H14.5232C15.1582 20.0371 15.6654 19.5226 15.6654 18.8876V17.1818C15.6654 16.5468 16.1799 16.0964 16.8149 16.0964H18.4583C19.0933 16.0964 19.6078 15.5819 19.6078 14.9469V11.3632C19.6078 10.7282 19.0933 10.2271 18.4583 10.2271H18.4588Z"
      fill="#121312" />
    <path
      d="M4.42512 6.00323C4.42512 5.36824 4.93965 4.85371 5.57464 4.85371H14.0278C14.6628 4.85371 15.1773 4.33918 15.1773 3.7042V1.57811C15.1773 0.943118 14.6628 0.428589 14.0278 0.428589H5.08463C4.44965 0.428589 3.93512 0.943118 3.93512 1.57811V3.21634C3.93512 3.85133 3.42059 4.36586 2.7856 4.36586H1.14952C0.514529 4.36586 0 4.88039 0 5.51537V9.10288C0 9.73787 0.516681 10.2266 1.15167 10.2266H3.27776C3.91275 10.2266 4.42728 9.71206 4.42728 9.07707L4.42512 6.00366V6.00323Z"
      fill="#121312" />
    <path
      d="M8.8031 7.99207H10.8453C11.5108 7.99207 12.0507 8.53241 12.0507 9.19751V11.2397C12.0507 11.9052 11.5104 12.4452 10.8453 12.4452H8.8031C8.13757 12.4452 7.59766 11.9048 7.59766 11.2397V9.19751C7.59766 8.53198 8.138 7.99207 8.8031 7.99207Z"
      fill="#121312" />
    <path
      d="M171.162 10.2149C172.882 10.2149 174.137 11.7236 174.137 13.7259C174.137 15.7282 172.882 17.2369 171.148 17.2369C169.992 17.2369 169.216 16.5601 168.906 15.8833H168.765V16.9831H167.566V7.25381H168.835V11.498H168.976C169.315 10.8212 170.062 10.2149 171.162 10.2149ZM170.81 11.3429C169.625 11.3429 168.779 12.3018 168.779 13.7259C168.779 15.1501 169.625 16.1089 170.81 16.1089C172.008 16.1089 172.826 15.1501 172.826 13.7259C172.826 12.3018 172.008 11.3429 170.81 11.3429Z"
      fill="black" fill-opacity="0.5" />
    <path
      d="M178.197 14.3604L179.65 10.4687H180.891V10.8917L177.168 20.0993H175.984V19.6763L177.069 17.11L174.517 10.8917V10.4687H175.786L177.239 14.3745C177.422 14.868 177.563 15.3052 177.633 15.7423H177.803C177.887 15.3052 178.014 14.8398 178.197 14.3604Z"
      fill="black" fill-opacity="0.5" />
    <path
      d="M184.743 13.8528H186.068C186.28 15.277 187.253 15.9961 188.719 15.9961C189.876 15.9961 190.891 15.5167 190.891 14.4591C190.891 13.6131 190.256 13.1901 189.523 12.9786L187.394 12.3723C186.068 11.9916 185.096 11.075 185.096 9.72138C185.096 8.11393 186.52 7 188.451 7C190.242 7 191.652 7.88833 192.047 9.69318V10.1867H190.792C190.609 8.95996 189.791 8.24084 188.451 8.24084C187.338 8.24084 186.463 8.76255 186.463 9.66498C186.463 10.3277 186.929 10.8494 187.831 11.1032L189.96 11.7095C191.272 12.0903 192.259 12.9363 192.259 14.4168C192.259 16.2076 190.778 17.2369 188.719 17.2369C186.548 17.2369 185.166 16.1371 184.743 14.3463V13.8528Z"
      fill="black" />
    <path
      d="M199.528 15.9538H199.782V16.9831H199.331C198.71 16.9831 198.09 16.7575 197.949 15.9115H197.808C197.498 16.6588 196.708 17.2369 195.481 17.2369C194.198 17.2369 193.169 16.5883 193.169 15.3616C193.169 14.3886 193.803 13.6695 194.903 13.3593L197.723 12.5556C197.667 11.7941 197.047 11.3147 196.243 11.3147C195.552 11.3147 194.861 11.6672 194.664 12.5133H193.493V12.1467C193.803 10.934 194.861 10.2149 196.257 10.2149C197.963 10.2149 198.978 11.2583 198.978 12.753V15.3052C198.978 15.7423 199.119 15.9538 199.528 15.9538ZM195.707 16.2217C196.934 16.2217 197.723 15.3052 197.723 14.3181V13.6131L195.467 14.2758C194.79 14.4732 194.452 14.8116 194.452 15.3052C194.452 15.9115 194.96 16.2217 195.707 16.2217Z"
      fill="black" />
    <path
      d="M204.573 8.32544H203.177C202.726 8.32544 202.528 8.46644 202.528 8.91766V10.4687H204.234V11.5403H202.528V16.9831H201.259V11.5403H200.061V10.4687H201.259V8.90356C201.259 7.77552 201.88 7.25381 203.008 7.25381H204.573V8.32544Z"
      fill="black" />
    <path
      d="M211.082 13.7259V14.0925H205.95C206.077 15.3193 206.852 16.1512 207.994 16.1512C208.868 16.1512 209.517 15.6436 209.714 14.8821H210.913V15.2911C210.617 16.2217 209.658 17.2369 207.994 17.2369C206.02 17.2369 204.681 15.7705 204.681 13.7259C204.681 11.6672 206.048 10.2149 207.966 10.2149C209.926 10.2149 211.082 11.6813 211.082 13.7259ZM207.952 11.2583C206.937 11.2583 206.203 11.9634 205.992 13.0491H209.799C209.644 11.9775 208.995 11.2583 207.952 11.2583Z"
      fill="black" />
    <path d="M215.724 16.9831V7.25381H217.05V15.7705H221.618V16.9831H215.724Z" fill="black" />
    <path
      d="M228.473 15.9538H228.726V16.9831H228.275C227.655 16.9831 227.034 16.7575 226.893 15.9115H226.752C226.442 16.6588 225.653 17.2369 224.426 17.2369C223.143 17.2369 222.113 16.5883 222.113 15.3616C222.113 14.3886 222.748 13.6695 223.848 13.3593L226.668 12.5556C226.611 11.7941 225.991 11.3147 225.187 11.3147C224.496 11.3147 223.805 11.6672 223.608 12.5133H222.438V12.1467C222.748 10.934 223.805 10.2149 225.201 10.2149C226.908 10.2149 227.923 11.2583 227.923 12.753V15.3052C227.923 15.7423 228.064 15.9538 228.473 15.9538ZM224.651 16.2217C225.878 16.2217 226.668 15.3052 226.668 14.3181V13.6131L224.412 14.2758C223.735 14.4732 223.397 14.8116 223.397 15.3052C223.397 15.9115 223.904 16.2217 224.651 16.2217Z"
      fill="black" />
    <path
      d="M233.306 10.2149C235.026 10.2149 236.281 11.7236 236.281 13.7259C236.281 15.7282 235.026 17.2369 233.292 17.2369C232.136 17.2369 231.36 16.5601 231.05 15.8833H230.909V16.9831H229.71V7.25381H230.979V11.498H231.12C231.459 10.8212 232.206 10.2149 233.306 10.2149ZM232.953 11.3429C231.769 11.3429 230.923 12.3018 230.923 13.7259C230.923 15.1501 231.769 16.1089 232.953 16.1089C234.152 16.1089 234.97 15.1501 234.97 13.7259C234.97 12.3018 234.152 11.3429 232.953 11.3429Z"
      fill="black" />
    <path
      d="M239.76 10.2149C241.297 10.2149 242.172 10.9763 242.397 12.0762V12.4569H241.255C241.142 11.7659 240.691 11.2865 239.76 11.2865C238.985 11.2865 238.505 11.6249 238.505 12.1185C238.505 12.5415 238.844 12.8094 239.323 12.9363L240.846 13.3452C241.918 13.6272 242.566 14.2899 242.566 15.2629C242.566 16.5178 241.495 17.2369 239.944 17.2369C238.35 17.2369 237.321 16.4896 237.025 15.2206V14.8398H238.181C238.379 15.7564 239.027 16.1653 239.944 16.1653C240.79 16.1653 241.311 15.8269 241.311 15.277C241.311 14.7975 240.917 14.5437 240.423 14.4027L238.872 13.9797C237.956 13.7259 237.265 13.1055 237.265 12.1326C237.265 10.9622 238.308 10.2149 239.76 10.2149Z"
      fill="black" />
  </g>
  <defs>
    <clipPath id="clip0_14519_42994">
      <rect width="245" height="20" fill="white" />
    </clipPath>
    <clipPath id="clip1_14519_42994">
      <rect width="136.842" height="20" fill="white" transform="translate(24.5664)" />
    </clipPath>
  </defs>
  <script xmlns="" id="vsc-settings-data">
    {"audioBoolean":true,"blacklist":"www.instagram.com\nx.com\nimgur.com\nteams.microsoft.com\nmeet.google.com","controllerButtonSize":14,"controllerOpacity":0.3,"defaultLogLevel":4,"displayKeyCode":86,"enabled":true,"forceLastSavedSpeed":false,"keyBindings":[{"action":"slower","force":false,"key":83,"predefined":true,"value":0.1},{"action":"faster","force":false,"key":68,"predefined":true,"value":0.1},{"action":"rewind","force":false,"key":90,"predefined":true,"value":10},{"action":"advance","force":false,"key":88,"predefined":true,"value":10},{"action":"reset","force":false,"key":82,"predefined":true,"value":1},{"action":"fast","force":false,"key":71,"predefined":true,"value":1.8},{"action":"display","force":false,"key":86,"predefined":true,"value":0},{"action":"mark","force":false,"key":77,"predefined":true,"value":0},{"action":"jump","force":false,"key":74,"predefined":true,"value":0}],"lastSpeed":1,"logLevel":3,"rememberSpeed":false,"speeds":{"blob:https://www.youtube.com/04fd7855-3e70-47bb-ac11-516a911b6757":1,"blob:https://www.youtube.com/06439f47-a794-4dbf-8fdd-35df62f20666":1,"blob:https://www.youtube.com/19584220-047b-47b4-975d-4f2783b6e121":1,"blob:https://www.youtube.com/1de53bca-db57-4c4d-8cb3-bf81c8d62055":1,"blob:https://www.youtube.com/328d10ab-0f66-49b9-8a3f-e9196f7c5bc3":1,"blob:https://www.youtube.com/366a31b3-3eec-4d2e-a147-219edcfcb2c2":1,"blob:https://www.youtube.com/3a7eabc4-aca6-414a-8b7f-2c750323d5ff":1,"blob:https://www.youtube.com/3e1f5919-5fe8-4561-91bf-90f6e95d6a9e":1,"blob:https://www.youtube.com/4d3a9efa-cc16-4bf4-b182-e38ba4a98151":1,"blob:https://www.youtube.com/4ea27677-cf81-446a-92f1-6079a684142f":1,"blob:https://www.youtube.com/57fe8072-ea15-433e-9ff1-06e22731c14d":1,"blob:https://www.youtube.com/594486b1-da9d-4acd-bac3-65960cd1912a":1,"blob:https://www.youtube.com/5cb188e0-6272-4f8a-8505-76863498e89e":1,"blob:https://www.youtube.com/6a491a77-ef0b-42ac-b7d4-e200f0e01943":1,"blob:https://www.youtube.com/6db16b88-162a-43e6-81fa-bd290a6c50b0":1,"blob:https://www.youtube.com/6e588831-ccd8-4754-b69c-575454d7e5ec":1,"blob:https://www.youtube.com/717c31b9-50e7-4239-b398-5d36733e3907":1,"blob:https://www.youtube.com/77653bdd-2a3b-4ef0-a370-736326b51c64":1,"blob:https://www.youtube.com/778fb0bb-55dc-43f1-ba44-12cfc9aa4fa3":1,"blob:https://www.youtube.com/7ae94799-9d15-45d0-a9c5-364a676f67eb":1,"blob:https://www.youtube.com/7d02a89b-8b32-4711-ad14-141caf1b3887":1,"blob:https://www.youtube.com/7da2277c-9faf-4c40-979c-0f095e3502f5":1,"blob:https://www.youtube.com/7f66f343-efdc-4182-8e26-2aafdd679e37":1,"blob:https://www.youtube.com/80c27aef-3dc4-4086-9007-53cccb180c1f":1,"blob:https://www.youtube.com/87c8ef63-fb09-45aa-8808-938efb641e07":1,"blob:https://www.youtube.com/8f6f0d31-5388-4700-9d2e-787b5a96c6f8":1,"blob:https://www.youtube.com/903910e7-10a8-4e7c-aa08-a6edbd3239cd":1,"blob:https://www.youtube.com/9ceb5b86-ada3-4ea2-b028-4766bd86d091":1,"blob:https://www.youtube.com/9f89ee42-98d5-4949-ac18-0547c63b0da2":1,"blob:https://www.youtube.com/a46714c9-8f0c-4a69-bd3f-39a8a7a8d7f3":1,"blob:https://www.youtube.com/a7fef764-8b7c-4b8f-8123-304d8ac5fa6a":1,"blob:https://www.youtube.com/a9e8b422-ab74-48a6-9c12-c9e529878d77":1,"blob:https://www.youtube.com/aba12687-908c-4556-b510-a72043d7f134":1,"blob:https://www.youtube.com/b824d171-edf0-4b40-b82d-7e0471350786":1,"blob:https://www.youtube.com/b96cb1db-08f1-48e7-9410-166e832dfc0e":1,"blob:https://www.youtube.com/c3a3b3c9-1e37-496d-b2b1-d19f27ce8abf":1,"blob:https://www.youtube.com/cae5ef8f-cec6-4756-86b8-d2e4eb3105f9":1,"blob:https://www.youtube.com/d1b38049-ad66-40f0-a7b1-afe0fa408079":1,"blob:https://www.youtube.com/d9d0422c-d482-4ba5-8dda-586c3b6d044b":1,"blob:https://www.youtube.com/da1c5b5e-fc17-496b-9209-8b154edfa292":1,"blob:https://www.youtube.com/dcb7cd61-b95e-4382-8fd6-ccb6adac675f":1,"blob:https://www.youtube.com/dd59652e-5646-4877-acce-b286bf412da1":1,"blob:https://www.youtube.com/f2d2e6eb-a6f7-4f1b-ae48-87fa5f19c979":1,"blob:https://www.youtube.com/f75075ad-79a7-48c2-8a02-72f95e6d4c9b":1},"startHidden":false,"version":"0.5.3"}
  </script>
  <script xmlns="" />
</svg>